<svg width="32" height="32" viewBox="0 0 32 32" fill="none" xmlns="http://www.w3.org/2000/svg">
	<rect x="5.5" y="5.5" width="21" height="21" rx="2.5" stroke="black" />
	<path d="M10 6V26" stroke="black" stroke-linecap="round" />
	<path d="M18.3 13C18.3 13.5355 18.0928 13.8825 17.7747 14.1127C17.4352 14.3584 16.9253 14.5 16.3 14.5C15.6748 14.5 15.1649 14.3584 14.8254 14.1127C14.5073 13.8825 14.3 13.5355 14.3 13C14.3 12.4645 14.5073 12.1175 14.8254 11.8873C15.1649 11.6416 15.6748 11.5 16.3 11.5C16.9253 11.5 17.4352 11.6416 17.7747 11.8873C18.0928 12.1175 18.3 12.4645 18.3 13Z" stroke="black" />
	<path d="M16.8017 15V14.5H15.8017V15H16.8017ZM16.3017 16.3571V16.8571H16.8017V16.3571H16.3017ZM14 15.8571C13.7239 15.8571 13.5 16.0809 13.5 16.3571C13.5 16.6332 13.7239 16.8571 14 16.8571V15.8571ZM19 16.8571C19.2761 16.8571 19.5 16.6332 19.5 16.3571C19.5 16.0809 19.2761 15.8571 19 15.8571V16.8571ZM15.8017 15V16.3571H16.8017V15H15.8017ZM16.3017 15.8571H14V16.8571H16.3017V15.8571ZM14 16.8571H19V15.8571H14V16.8571Z" fill="black" />
	<path d="M20.4026 11V14.375M20.4026 17.75V14.375M20.4026 14.375H22" stroke="black" stroke-linecap="round" />
	<path d="M15 18.5V20.3H20.8528" stroke="black" stroke-linecap="round" stroke-linejoin="round" />
</svg>
