<svg width="17" height="18" viewBox="0 0 17 18" fill="none" xmlns="http://www.w3.org/2000/svg">
	<path fill-rule="evenodd" clip-rule="evenodd" d="M2.84736 0.949677C2.18854 0.949677 1.55671 1.21139 1.09085 1.67725C0.624996 2.1431 0.363281 2.77494 0.363281 3.43376V16.6822C0.363281 17.0171 0.565024 17.319 0.874436 17.4472C1.18385 17.5754 1.54 17.5045 1.77681 17.2677L4.8464 14.1981H14.4397C15.0986 14.1981 15.7304 13.9364 16.1963 13.4705C16.6621 13.0047 16.9238 12.3729 16.9238 11.714V3.43376C16.9238 2.77494 16.6621 2.1431 16.1963 1.67725C15.7304 1.21139 15.0986 0.949677 14.4397 0.949677H2.84736ZM2.26186 2.84825C2.41714 2.69297 2.62776 2.60573 2.84736 2.60573H14.4397C14.6594 2.60573 14.87 2.69297 15.0252 2.84825C15.1805 3.00354 15.2678 3.21415 15.2678 3.43376V11.714C15.2678 11.9336 15.1805 12.1442 15.0252 12.2995C14.87 12.4548 14.6594 12.5421 14.4397 12.5421H4.50342C4.28381 12.5421 4.0732 12.6293 3.91791 12.7846L2.01934 14.6832V3.43376C2.01934 3.21415 2.10657 3.00354 2.26186 2.84825Z" fill="white" />
</svg>
