<svg width="20" height="19" viewBox="0 0 20 19" fill="none" xmlns="http://www.w3.org/2000/svg">
<path fill-rule="evenodd" clip-rule="evenodd" d="M8.9258 3.73612C7.39381 2.20413 4.90996 2.20413 3.37796 3.73612C1.84597 5.26811 1.84597 7.75197 3.37797 9.28396L4.0345 9.94049C4.04523 9.95122 4.05564 9.96221 4.06573 9.97345L10.1777 16.0855L16.2895 9.97371C16.2996 9.96243 16.3101 9.95135 16.321 9.94049L16.9775 9.28396C18.5095 7.75196 18.5095 5.26811 16.9775 3.73612C15.4455 2.20413 12.9617 2.20413 11.4297 3.73612L10.7731 4.39265C10.4443 4.72148 9.91116 4.72148 9.58233 4.39265L8.9258 3.73612ZM17.5441 11.0989C17.534 11.1102 17.5235 11.1213 17.5126 11.1322L10.774 17.8708C10.616 18.0288 10.4018 18.1175 10.1784 18.1174C10.1782 18.1174 10.1786 18.1174 10.1784 18.1174C10.1782 18.1174 10.1773 18.1174 10.1771 18.1174C9.95368 18.1175 9.73943 18.0288 9.58147 17.8708L2.84283 11.1322C2.83197 11.1213 2.82147 11.1102 2.81133 11.0989L2.18716 10.4748C-0.00249019 8.28511 -0.00249341 4.73497 2.18716 2.54532C4.37682 0.355662 7.92695 0.355663 10.1166 2.54532L10.1777 2.60645L10.2389 2.54532C12.4285 0.355662 15.9787 0.355663 18.1683 2.54532C20.358 4.73497 20.358 8.28511 18.1683 10.4748L17.5441 11.0989Z" fill="white"/>
</svg>
