<svg width="5" height="18" viewBox="0 0 5 18" fill="none" xmlns="http://www.w3.org/2000/svg">
<path d="M0.873047 2C0.873047 0.89543 1.76848 0 2.87305 0C3.97762 0 4.87305 0.89543 4.87305 2C4.87305 3.10457 3.97762 4 2.87305 4C1.76848 4 0.873047 3.10457 0.873047 2Z" fill="white"/>
<path d="M0.873047 9C0.873047 7.89543 1.76848 7 2.87305 7C3.97762 7 4.87305 7.89543 4.87305 9C4.87305 10.1046 3.97762 11 2.87305 11C1.76848 11 0.873047 10.1046 0.873047 9Z" fill="white"/>
<path d="M2.87305 14C1.76848 14 0.873047 14.8954 0.873047 16C0.873047 17.1046 1.76848 18 2.87305 18C3.97762 18 4.87305 17.1046 4.87305 16C4.87305 14.8954 3.97762 14 2.87305 14Z" fill="white"/>
</svg>
