<svg width="15" height="19" viewBox="0 0 15 19" fill="none" xmlns="http://www.w3.org/2000/svg">
	<path fill-rule="evenodd" clip-rule="evenodd" d="M1.52539 0.104706C0.973106 0.104706 0.525391 0.552421 0.525391 1.10471V17.1047C0.525391 17.657 0.973106 18.1047 1.52539 18.1047H5.52539C6.07768 18.1047 6.52539 17.657 6.52539 17.1047V1.10471C6.52539 0.552421 6.07768 0.104706 5.52539 0.104706H1.52539ZM2.52539 16.1047V2.10471H4.52539V16.1047H2.52539Z" fill="#E5E6E8" />
	<path fill-rule="evenodd" clip-rule="evenodd" d="M9.52539 0.104706C8.97311 0.104706 8.52539 0.552421 8.52539 1.10471V17.1047C8.52539 17.657 8.97311 18.1047 9.52539 18.1047H13.5254C14.0777 18.1047 14.5254 17.657 14.5254 17.1047V1.10471C14.5254 0.552421 14.0777 0.104706 13.5254 0.104706H9.52539ZM10.5254 16.1047V2.10471H12.5254V16.1047H10.5254Z" fill="#E5E6E8" />
</svg>
