<svg width="17" height="18" viewBox="0 0 17 18" fill="none" xmlns="http://www.w3.org/2000/svg">
<path fill-rule="evenodd" clip-rule="evenodd" d="M0.978516 17C0.978516 17.3844 1.19886 17.7348 1.54533 17.9013C1.89179 18.0678 2.30304 18.021 2.60321 17.7809L12.6032 9.78086C12.8404 9.59109 12.9785 9.30377 12.9785 8.99999C12.9785 8.69621 12.8404 8.40889 12.6032 8.21912L2.60321 0.219121C2.30304 -0.0210165 1.89179 -0.0678343 1.54533 0.0986868C1.19886 0.265206 0.978517 0.615584 0.978517 0.999989L0.978516 17ZM2.97852 3.08061L10.3777 8.99999L2.97852 14.9194L2.97852 3.08061Z" fill="white"/>
<path d="M14.9785 16C14.9785 16.5523 15.4262 17 15.9785 17C16.5308 17 16.9785 16.5523 16.9785 16L16.9785 1.99999C16.9785 1.44771 16.5308 0.99999 15.9785 0.99999C15.4262 0.99999 14.9785 1.44771 14.9785 1.99999L14.9785 16Z" fill="white"/>
</svg>
