<svg width="16" height="18" viewBox="0 0 16 18" fill="none" xmlns="http://www.w3.org/2000/svg">
<path fill-rule="evenodd" clip-rule="evenodd" d="M16 1.00001C16 0.615604 15.7797 0.265226 15.4332 0.0987061C15.0867 -0.0678138 14.6755 -0.0209954 14.3753 0.219141L4.37531 8.21914C4.13809 8.40891 4 8.69623 4 9.00001C4 9.30379 4.13809 9.59111 4.37531 9.78088L14.3753 17.7809C14.6755 18.021 15.0867 18.0678 15.4332 17.9013C15.7797 17.7348 16 17.3844 16 17V1.00001ZM14 14.9194L6.60078 9.00001L14 3.08063V14.9194Z" fill="white"/>
<path d="M2 2.00001C2 1.44772 1.55228 1.00001 1 1.00001C0.447715 1.00001 0 1.44772 0 2.00001V16C0 16.5523 0.447715 17 1 17C1.55228 17 2 16.5523 2 16V2.00001Z" fill="white"/>
</svg>
